<svg xmlns="http://www.w3.org/2000/svg" fill="none" viewBox="0 0 84 33" width="102" height="40"><path fill="#000" fill-rule="evenodd" d="M38.095 19.985q-1.396-1.39-1.397-3.467.001-2.078 1.397-3.468c.93-.923 2.07-1.386 3.411-1.386a4.79 4.79 0 0 1 3.838 1.871v.092l-.672.513h-.083c-.692-.956-1.804-1.525-3.055-1.525-1.076 0-1.978.366-2.698 1.103-.728.738-1.092 1.668-1.092 2.8s.364 2.067 1.092 2.799c.72.74 1.622 1.104 2.698 1.104 1.238 0 2.363-.563 3.055-1.526h.083l.672.52v.085c-.894 1.174-2.271 1.879-3.838 1.879-1.349 0-2.481-.465-3.41-1.394M51.098 19.93q.725-.527.727-1.379v-.442q-1.144-.59-2.203-.59-.911 0-1.468.422a1.35 1.35 0 0 0-.553 1.118q0 .634.503 1.012c.329.26.776.387 1.329.387.624 0 1.175-.177 1.665-.529m1.706-3.165v4.439h-.978v-.964q-.976 1.14-2.476 1.14c-.832 0-1.496-.22-2.006-.654-.51-.43-.769-1-.769-1.696 0-.725.28-1.302.84-1.744q.829-.663 2.195-.661 1.134 0 2.216.549v-.626q.002-.812-.553-1.309-.558-.494-1.483-.493a3.4 3.4 0 0 0-2.244.809h-.084l-.447-.648v-.084q.514-.44 1.279-.725.753-.274 1.496-.274c1.952 0 3.014 1.062 3.014 2.94M59.784 19.634c.49-.548.733-1.223.733-2.033q0-1.212-.733-2.034-.743-.823-1.958-.823-1.134 0-1.888.737-.764.747-.763 2.118-.001 1.371.763 2.11.754.747 1.888.745 1.215.005 1.958-.82m.747-4.72c.678.724 1.013 1.624 1.013 2.687s-.335 1.962-1.013 2.687-1.551 1.09-2.607 1.09q-1.585-.001-2.636-1.154v3.138h-1V14h.958v.992q1.051-1.17 2.678-1.168c1.056-.001 1.93.365 2.607 1.09M64.497 15.35c-.455.407-.735.95-.826 1.632H68.7q-.127-.917-.692-1.497c-.44-.493-1.041-.738-1.817-.738-.68-.002-1.238.202-1.693.603m-.854 2.553q.082 1.194.867 1.871c.517.458 1.132.682 1.839.682.447 0 .91-.1 1.377-.288.468-.19.831-.465 1.097-.808h.083l.614.52v.085q-.504.687-1.377 1.047a4.5 4.5 0 0 1-1.768.366q-1.532.002-2.656-1.02-1.123-1.011-1.125-2.73-.001-1.626 1.036-2.715 1.027-1.089 2.56-1.09 1.476 0 2.46.97c.72.705 1.076 1.59 1.076 2.667q.002.244-.027.443z" clip-rule="evenodd"></path><path fill="#000" d="M83.21 12.47a.8.8 0 0 1-.591.247.8.8 0 0 1-.591-.247.82.82 0 0 1-.24-.59q0-.346.24-.592a.8.8 0 0 1 .59-.246q.352 0 .592.246a.8.8 0 0 1 .246.591q0 .345-.246.591m-1.091 8.733v-7.206h1.006v7.206zM77 13.821q1.47 0 2.251.767.78.768.781 2.175v4.44h-.985v-.964q-.978 1.14-2.49 1.14-1.253 0-2.027-.648-.768-.654-.767-1.703 0-1.083.837-1.745.845-.66 2.216-.661 1.14 0 2.231.549v-.626q0-.81-.563-1.302-.555-.5-1.485-.5a3.44 3.44 0 0 0-2.258.81h-.085l-.45-.648v-.084a4.1 4.1 0 0 1 1.28-.718A4.4 4.4 0 0 1 77 13.82m-.36 6.636a2.78 2.78 0 0 0 1.668-.528q.74-.527.739-1.38v-.442q-1.154-.591-2.216-.591-.923 0-1.478.429a1.33 1.33 0 0 0-.556 1.112q0 .633.5 1.02.505.38 1.344.38M72.45 21.133a.8.8 0 0 1-.59.246.8.8 0 0 1-.592-.247.8.8 0 0 1-.246-.59q0-.345.246-.592a.8.8 0 0 1 .591-.246q.345 0 .591.246a.8.8 0 0 1 .247.591q0 .345-.247.591"></path><path fill="url(#cape-logo_svg__a)" fill-rule="evenodd" d="M15.927.48v4.888l.035-.002q.22-.009.44-.01.221.001.438.01l.04.002V.48a.48.48 0 0 0-.477-.48.48.48 0 0 0-.476.48m4.135.42-1.257 4.722q.471.103.924.245l1.258-4.718a.48.48 0 0 0-.463-.606.48.48 0 0 0-.462.358m-8.243.25a.484.484 0 0 1 .46-.606.48.48 0 0 1 .464.357l1.258 4.72q-.47.104-.925.246zm12.132 1.235-2.428 4.233q.426.224.827.482l2.428-4.236a.48.48 0 0 0-.414-.72.47.47 0 0 0-.413.24m-15.923.48a.48.48 0 0 1 .413-.72c.164 0 .325.085.413.24l2.432 4.23q-.427.224-.827.482zM4.805 4.83a.48.48 0 0 0 0 .679L8.24 8.965q.322-.352.675-.678L5.479 4.83a.474.474 0 0 0-.674 0M23.89 8.287l3.436-3.454a.474.474 0 0 1 .674 0 .48.48 0 0 1 0 .679l-3.435 3.456a12 12 0 0 0-.675-.681M2.2 8.249a.48.48 0 0 0 .175.656l4.207 2.442c.15-.285.307-.563.48-.832L2.85 8.073a.477.477 0 0 0-.651.176M.895 12.82a.482.482 0 0 1 .247-.929l4.69 1.265q-.141.456-.244.93zm-.418 3.2a.479.479 0 0 0 0 .959h4.859l-.002-.036q-.009-.222-.01-.444.001-.221.01-.444l.002-.035zm.08 4.753a.484.484 0 0 1 .339-.59l4.695-1.267q.103.474.244.93L1.142 21.11a.48.48 0 0 1-.586-.338m1.814 3.323a.48.48 0 0 0 .476.832l4.208-2.446q-.256-.403-.48-.831zm24.953 4.072L23.89 24.71q.35-.323.675-.678L28 27.488a.481.481 0 0 1-.338.82.47.47 0 0 1-.34-.141m-22.52-.679a.481.481 0 0 0 .34.82.47.47 0 0 0 .338-.141l3.436-3.457a10 10 0 0 1-.678-.678zm3.396 3.3a.48.48 0 0 1-.175-.655l2.428-4.236q.4.258.827.482L8.85 30.612a.476.476 0 0 1-.651.176m13.32-4.403 2.431 4.23a.48.48 0 0 0 .652.176.48.48 0 0 0 .175-.655l-2.431-4.233a11 11 0 0 1-.827.482m-1.458 5.714-1.257-4.724q.471-.104.924-.245l1.258 4.718a.48.48 0 0 1-.463.606.48.48 0 0 1-.462-.355m-8.243-.248a.48.48 0 0 0 .462.606c.21 0 .405-.141.462-.355l1.258-4.721q-.47-.104-.925-.245zm4.153-4.217q.216.009.428.01.22-.001.44-.01l.037-.002v4.889c0 .262-.213.479-.477.479a.48.48 0 0 1-.476-.48v-4.888z" clip-rule="evenodd"></path><defs><linearGradient id="cape-logo_svg__a" x1="28.392" x2="0" y1="16.5" y2="16.5" gradientUnits="userSpaceOnUse"><stop stop-color="#007AFD"></stop><stop offset="0.427" stop-color="#8A2DB8"></stop><stop offset="1" stop-color="#FD47BC"></stop></linearGradient></defs></svg>